<svg width="767" height="267" viewBox="0 0 767 267" fill="none" xmlns="http://www.w3.org/2000/svg">
<style type="text/css">
	.st0{fill:#58595B;}
	.st1{fill:#F1C731;}
	.st2{fill:#E9B230;}
	.st3{fill:#F3D931;}
	.st4{fill:#59595B;}
</style>
<g>
	<g>
		<path class="st0" d="M234.5,65.7c-4.6,0-8,3.4-8,8v104.6c0,4.6,3.4,8,8,8c4.6,0,8-3.4,8-8V73.8C242.5,69.7,239.6,65.7,234.5,65.7z
			"/>
		<path class="st0" d="M508,34.7c0-4-3.4-8-8-8c-4,0-8,3.4-8,8v50.6c-10.9-12.1-27-19.5-44.8-19.5c-33.3,0-60.3,27-60.3,60.3
			s27,60.3,60.3,60.3s60.3-27,60.3-60.3c0-0.6,0-0.6,0-1.1L508,34.7L508,34.7z M492.5,126L492.5,126
			C492.5,127.2,492.5,127.2,492.5,126c0,25.3-19.5,44.8-44.2,44.8c-24.7,0-44.2-19.5-44.2-44.2s19.5-43.7,44.2-43.7
			c23.6,0,43.7,19,44.2,42.5V126z"/>
		<path class="st0" d="M577.5,65.7c-32.8,0-59.8,26.4-60.3,59.2l0,0v0.6c0,0,0,0,0,0.6l0,0v52.9c0,4.6,3.4,8,8,8s8-3.4,8-8V126
			c0.6-24.1,20.1-43.7,44.2-43.7s44.2,19.5,44.2,43.7l0,0v52.9c0,4,3.4,8,8,8c4,0,8-3.4,8-8V126C637.9,93.3,610.8,65.7,577.5,65.7z"
			/>
		<path class="st0" d="M196.5,65.7L196.5,65.7c-33.3,0-59.8,26.4-60.3,59.2l0,0v0.6c0,0,0,0,0,0.6l0,0v52.9c0,4.6,3.4,8,8,8
			c4.6,0,8-3.4,8-8V126c0.6-24.1,20.1-43.7,44.2-43.7c0,0,10.9,0.6,10.9-8.6C206.9,65.7,196.5,65.7,196.5,65.7z"/>
		<path class="st0" d="M60.3,65.7C27,65.7,0,93.3,0,126s27,60.3,60.3,60.3c13.8,0,26.4-4.6,36.8-12.1l10.3,10.3l0,0
			c1.1,1.1,3.4,2.3,5.2,2.3c4.6,0,8-3.4,8-8v-50.6c0,0,0,0,0-0.6v-0.6C120.7,93.3,93.7,65.7,60.3,65.7z M60.9,170.9
			c-24.1,0-44.2-19.5-44.2-44.2s20.1-43.7,44.2-43.7s44.2,19.5,44.2,44.2S85.6,170.9,60.9,170.9z"/>
		<path class="st0" d="M317.8,65.7c-33.3,0-60.3,27-60.3,60.3s27.6,60.3,60.3,60.3c13.8,0,26.4-4.6,36.8-12.1l10.3,10.3l0,0
			c1.1,1.1,3.4,2.3,5.2,2.3c4.6,0,8-3.4,8-8v-50.6c0,0,0,0,0-0.6v-0.6C378.1,93.3,351.1,65.7,317.8,65.7z M317.8,170.9
			c-24.1,0-44.2-19.5-44.2-44.2s19.5-44.2,44.2-44.2c24.7,0,44.2,19.5,44.2,44.2C362.6,151.3,343.1,170.9,317.8,170.9z"/>
		<path class="st0" d="M705.1,65.7c-33.3,0-60.3,27-60.3,60.3s27,60.3,60.3,60.3c13.8,0,26.4-4.6,36.8-12.1l10.3,10.3l0,0
			c1.1,1.1,3.4,2.3,5.2,2.3c4.6,0,8-3.4,8-8v-50.6c0,0,0,0,0-0.6v-0.6C765.4,93.3,739,65.7,705.1,65.7z M705.7,170.9
			c-24.1,0-44.2-19.5-44.2-44.2s19.5-44.2,44.2-44.2c24.1,0,44.8,19.5,44.8,44.2C749.9,151.3,730.4,170.9,705.7,170.9z"/>
	</g>
	<path class="st1" d="M724.1,31.8c0,10.3-8,18.4-18.4,18.4c-10.3,0-18.4-8-18.4-18.4s8-18.4,18.4-18.4C716,13.4,724.1,22,724.1,31.8
		z"/>
	<path class="st2" d="M681.5,31.8c0,10.3-8,18.4-18.4,18.4s-18.4-8-18.4-18.4s8-18.4,18.4-18.4C673.5,13.4,681.5,22,681.5,31.8z"/>
	<path class="st3" d="M766,31.8c0,10.3-8,18.4-18.4,18.4c-10.3,0-18.4-8-18.4-18.4s8-18.4,18.4-18.4C758,13.4,766,22,766,31.8z"/>
	<g>
		<path class="st4" d="M136.2,227.2L136.2,227.2c0-8.6,6.9-16.7,16.1-16.7c5.2,0,8.6,2.3,11.5,4.6c0.6,0,0.6,0.6,0.6,1.1
			c0,1.1-1.1,2.3-2.3,2.3c-0.6,0-1.1,0-1.1-0.6c-2.9-1.1-5.2-2.9-8.6-2.9c-6.3,0-11.5,5.2-11.5,12.1l0,0c0,6.9,4.6,12.1,11.5,12.1
			c3.4,0,6.9-1.1,8.6-4c0,0,0.6-0.6,1.1-0.6c1.1,0,2.3,1.1,2.3,2.3s0,1.1-0.6,1.1c-2.9,2.9-6.9,5.2-12.1,5.2
			C143.1,244.4,136.2,236.4,136.2,227.2z"/>
		<path class="st4" d="M166.6,227.2L166.6,227.2c0-8.6,6.9-16.7,16.1-16.7c9.8,0,16.1,7.5,16.1,16.1l0,0c0,8.6-6.9,16.1-16.7,16.1
			C173.5,244.4,166.6,237,166.6,227.2z M194.8,227.2L194.8,227.2c0-6.9-5.2-12.1-11.5-12.1c-6.9,0-11.5,5.2-11.5,12.1l0,0
			c0,6.9,4.6,12.1,11.5,12.1C189.6,239.2,194.8,234.1,194.8,227.2z"/>
		<path class="st4" d="M204,214c0-1.1,1.1-2.9,2.3-2.9s2.9,1.1,2.9,2.9v3.4c2.3-3.4,4.6-6.3,10.3-6.3c5.2,0,8,2.9,10.3,6.3
			c2.3-3.4,5.2-6.3,10.9-6.3c7.5,0,11.5,4.6,11.5,12.6v17.8c0,1.1-1.1,2.9-2.3,2.9s-2.9-1.1-2.9-2.9v-16.1c0-6.3-3.4-9.8-8-9.8
			s-8.6,3.4-8.6,9.8v16.1c0,1.1-1.1,2.9-2.9,2.9s-2.3-1.1-2.3-2.9v-16.1c0-6.3-3.4-9.8-8-9.8c-4.6,0-8.6,4-8.6,10.3v16.1
			c0,1.1-0.6,2.9-2.3,2.9s-2.9-1.1-2.9-2.9v-28.7h0.6V214z"/>
		<path class="st4" d="M259.2,214c0-1.1,1.1-2.9,2.3-2.9s2.9,1.1,2.9,2.9v3.4c2.3-3.4,4.6-6.3,10.3-6.3s8,2.9,10.3,6.3
			c2.3-3.4,5.2-6.3,10.9-6.3c7.5,0,11.5,4.6,11.5,12.6v17.8c0,1.1-1.1,2.9-2.3,2.9s-2.9-1.1-2.9-2.9v-16.1c0-6.3-3.4-9.8-8-9.8
			c-4.6,0-8.6,3.4-8.6,9.8v16.1c0,1.1-1.1,2.9-2.9,2.9c-1.1,0-2.3-1.1-2.3-2.9v-16.1c0-6.3-3.4-9.8-8-9.8c-4.6,0-8.6,4-8.6,10.3
			v16.1c0,1.1-0.6,2.9-2.3,2.9c-1.7,0-2.9-1.7-2.9-2.9v-28.7h0.6V214z"/>
		<path class="st4" d="M340.8,241c0,1.1-0.6,2.9-2.3,2.9s-2.3-1.1-2.3-2.9v-3.4c-2.3,3.4-5.2,6.3-10.9,6.3
			c-7.5,0-12.1-5.2-12.1-12.6v-17.8c0-1.1,0.6-2.9,2.3-2.9s2.9,1.1,2.9,2.9v16.1c0,6.3,3.4,9.8,8.6,9.8c5.2,0,9.8-4,9.8-10.3v-16.1
			c0-1.1,0.6-2.9,2.3-2.9c1.1,0,2.3,1.1,2.3,2.9C340.8,212.2,340.8,241,340.8,241z"/>
		<path class="st4" d="M347.7,214c0-1.1,1.1-2.9,2.3-2.9s2.9,1.1,2.9,2.9v3.4c2.3-3.4,5.2-6.3,10.9-6.3c7.5,0,12.1,5.2,12.1,12.6
			v17.8c0,1.1-1.1,2.9-2.3,2.9s-2.9-1.1-2.9-2.9v-16.1c0-6.3-3.4-9.8-8.6-9.8c-5.2,0-9.8,4-9.8,10.3v16.1c0,1.1-0.6,2.9-2.3,2.9
			c-1.7,0-2.9-1.1-2.9-2.9C347.7,242.1,347.7,214,347.7,214z"/>
		<path class="st4" d="M381.6,201.3c0-1.1,1.1-2.9,2.9-2.9c1.1,0,2.9,0.6,2.9,2.9v0.6c0,1.1-1.1,2.9-2.9,2.9c-1.1,0-2.9-1.1-2.9-2.9
			V201.3z M382.1,214c0-1.1,1.1-2.9,2.3-2.9s2.9,1.1,2.9,2.9v27.6c0,1.1-0.6,2.9-2.3,2.9c-1.1,0-2.9-1.1-2.9-2.9V214z"/>
		<path class="st4" d="M392.5,227.2L392.5,227.2c0-8.6,6.9-16.7,16.1-16.7c5.2,0,8.6,2.3,11.5,4.6c0.6,0,0.6,0.6,0.6,1.1
			c0,1.1-1.1,2.3-2.3,2.3c-0.6,0-1.1,0-1.1-0.6c-2.3-2.3-4.6-4-8.6-4c-6.9,0-11.5,5.2-11.5,12.1l0,0c0,6.9,4.6,12.1,11.5,12.1
			c3.4,0,6.9-1.1,8.6-4c0,0,0.6-0.6,1.1-0.6c1.1,0,2.3,1.1,2.3,2.3s0,1.1-0.6,1.1c-2.9,2.9-6.9,5.2-12.1,5.2
			C399.4,244.4,392.5,236.4,392.5,227.2z"/>
		<path class="st4" d="M422.9,234.1L422.9,234.1c0-6.9,5.2-10.3,13.8-10.3c4,0,6.9,0.6,9.8,1.1v-1.1c0-5.2-3.4-8.6-9.8-8.6
			c-3.4,0-6.3,0.6-8,2.3h-0.6c-1.1,0-2.3-0.6-2.3-2.3c0-0.6,0.6-2.3,1.1-2.3c3.4-1.1,6.3-2.3,10.3-2.3c4.6,0,8,1.1,10.3,3.4
			c2.3,2.3,3.4,5.2,3.4,9.8v17.8c0,1.1-0.6,2.3-2.3,2.3c-1.1,0-2.3-0.6-2.3-2.3v-2.9c-2.3,2.9-6.3,5.2-11.5,5.2
			C429.3,244.4,422.9,241,422.9,234.1z M447.1,231.2v-2.9c-2.3-0.6-5.2-1.1-9.8-1.1c-6.3,0-9.8,2.9-9.8,6.9l0,0c0,4,3.4,6.3,8,6.3
			C441.9,240.4,447.1,237,447.1,231.2z"/>
		<path class="st4" d="M459.1,234.7v-19h-2.9c-1.1,0-2.3-0.6-2.3-2.3c0-1.1,0.6-2.3,2.3-2.3h2.9v-7.5c0-1.1,0.6-2.9,2.3-2.9
			c1.1,0,2.9,1.1,2.9,2.9v7.5h8c1.1,0,2.3,0.6,2.3,2.3s-0.6,2.3-2.3,2.3h-8v18.4c0,4,2.3,5.2,5.2,5.2c1.1,0,2.9-0.6,2.9-0.6
			c1.1,0,2.3,0.6,2.3,2.3c0,0.6-0.6,1.1-1.1,2.3c-1.1,0.6-2.9,0.6-4.6,0.6C462.6,243.3,459.1,241.5,459.1,234.7z"/>
		<path class="st4" d="M478.1,201.3c0-1.1,1.1-2.9,2.9-2.9c1.1,0,2.9,0.6,2.9,2.9v0.6c0,1.1-1.1,2.9-2.9,2.9c-1.1,0-2.9-1.1-2.9-2.9
			V201.3z M478.7,214c0-1.1,1.1-2.9,2.3-2.9c1.1,0,2.9,1.1,2.9,2.9v27.6c0,1.1-0.6,2.9-2.3,2.9c-1.1,0-2.9-1.1-2.9-2.9V214z"/>
		<path class="st4" d="M489,227.2L489,227.2c0-8.6,6.9-16.7,16.1-16.7c9.8,0,16.1,7.5,16.1,16.1l0,0c0,8.6-6.9,16.1-16.7,16.1
			C495.9,244.4,489,237,489,227.2z M516.6,227.2L516.6,227.2c0-6.9-5.2-12.1-11.5-12.1c-6.9,0-11.5,5.2-11.5,12.1l0,0
			c0,6.9,4.6,12.1,11.5,12.1C512,239.2,516.6,234.1,516.6,227.2z"/>
		<path class="st4" d="M526.9,214c0-1.1,1.1-2.9,2.3-2.9s2.9,1.1,2.9,2.9v3.4c2.3-3.4,5.2-6.3,10.9-6.3c7.5,0,12.1,5.2,12.1,12.6
			v17.8c0,1.1-1.1,2.9-2.3,2.9s-2.9-1.1-2.9-2.9v-16.1c0-6.3-3.4-9.8-8.6-9.8c-5.2,0-9.8,4-9.8,10.3v16.1c0,1.1-0.6,2.9-2.3,2.9
			c-1.1,0-2.9-1.1-2.9-2.9C526.9,242.1,526.9,214,526.9,214z"/>
		<path class="st4" d="M558.6,240.4c-0.6,0-0.6-0.6-0.6-2.3s0.6-2.3,2.3-2.3c0.6,0,0.6,0,1.1,0.6c3.4,2.3,6.9,3.4,10.3,3.4
			c4,0,6.9-2.3,6.9-4.6l0,0c0-3.4-4-4.6-8-5.2c-4.6-1.1-10.3-3.4-10.3-8.6l0,0c0-5.2,4.6-8.6,10.9-8.6c3.4,0,6.9,1.1,10.3,2.9
			c0.6,0.6,1.1,1.1,1.1,2.3s-0.6,2.3-2.3,2.3c-0.6,0-0.6,0-1.1,0c-3.4-3.4-6.3-4-8.6-4c-4,0-6.3,2.3-6.3,4.6l0,0c0,2.9,4,4,8,5.2
			c4.6,1.1,10.3,3.4,10.3,8.6l0,0c0,6.3-4.6,9.8-11.5,9.8C566.6,243.3,562.6,242.1,558.6,240.4z"/>
		<path class="st4" d="M604,250.7c-1.1-0.6-2.9-2.3-2.9-3.4c0-2.3,2.3-4,4-4c0.6,0,1.1,0,1.1,0c2.9,1.1,5.2,2.3,8.6,2.3
			c6.3,0,9.8-3.4,9.8-8.6v-1.1c-2.9,3.4-6.3,5.2-10.9,5.2c-7.5,0-14.9-5.2-14.9-15.5l0,0c0-9.8,6.9-15.5,14.9-15.5
			c5.2,0,8,2.3,10.9,4.6l0,0c0-2.9,2.3-4.6,4.6-4.6c2.9,0,4.6,2.3,4.6,4.6v21.3c0,6.3-1.1,10.3-4,12.6c-3.4,3.4-7.5,4.6-14.4,4.6
			C611.4,253,607.4,252.5,604,250.7z M625.2,225.5L625.2,225.5c0-4.6-3.4-7.5-8-7.5s-8,3.4-8,7.5l0,0c0,4.6,3.4,7.5,8,7.5
			S625.2,230.1,625.2,225.5z"/>
		<path class="st4" d="M638.4,214.5c0-2.9,2.3-4.6,4.6-4.6c2.9,0,4.6,2.3,4.6,4.6v1.1c1.1-3.4,3.4-6.3,6.3-6.3s4.6,2.3,4.6,4.6
			c0,2.9-1.1,4-3.4,4c-4.6,1.1-7.5,4.6-7.5,11.5v8.6c0,2.9-2.3,4.6-4.6,4.6c-2.9,0-4.6-2.3-4.6-4.6V214.5z"/>
		<path class="st4" d="M658.5,227.2L658.5,227.2c0-9.8,7.5-16.7,17.8-16.7c10.3,0,17.8,7.5,17.8,16.7l0,0c0,9.8-7.5,16.7-17.8,16.7
			C666,244.4,658.5,236.4,658.5,227.2z M685,227.2L685,227.2c0-4.6-3.4-9.8-8.6-9.8s-8.6,4-8.6,8.6l0,0c0,4.6,3.4,8.6,8.6,8.6
			C681.5,236.4,685,231.8,685,227.2z"/>
		<path class="st4" d="M726.9,238.7c0,2.9-2.3,4.6-4.6,4.6c-2.9,0-4.6-2.3-4.6-4.6v-0.6c-2.3,2.9-4.6,5.2-9.8,5.2
			c-6.9,0-10.9-4.6-10.9-12.1v-16.7c0-2.9,2.3-4.6,4.6-4.6c2.9,0,4.6,2.3,4.6,4.6v14.4c0,4,2.3,6.9,5.2,6.9c3.4,0,6.3-2.3,6.3-6.9
			v-14.4c0-2.9,2.3-4.6,4.6-4.6c2.9,0,4.6,2.3,4.6,4.6L726.9,238.7L726.9,238.7z"/>
		<path class="st4" d="M731.5,214.5c0-2.9,2.3-4.6,4.6-4.6c2.9,0,4.6,2.3,4.6,4.6v0.6c2.3-3.4,5.2-5.2,10.3-5.2
			c7.5,0,14.9,6.3,14.9,16.7l0,0c0,10.9-7.5,16.7-14.9,16.7c-4.6,0-8-2.3-10.3-4.6V249c0,2.9-2.3,4.6-4.6,4.6s-4.6-2.3-4.6-4.6
			V214.5z M756.8,226.6L756.8,226.6c0-5.2-3.4-9.8-8-9.8c-4,0-8,3.4-8,8.6l0,0c0,5.2,3.4,8.6,8,8.6
			C753.4,236.4,756.8,232.9,756.8,226.6z"/>
	</g>
</g>
</svg>
